<?xml version="1.0" encoding="UTF-8" standalone="no"?>
<!-- Created with Inkscape (http://www.inkscape.org/) -->

<svg
   xmlns:dc="http://purl.org/dc/elements/1.1/"
   xmlns:cc="http://creativecommons.org/ns#"
   xmlns:rdf="http://www.w3.org/1999/02/22-rdf-syntax-ns#"
   xmlns:svg="http://www.w3.org/2000/svg"
   xmlns="http://www.w3.org/2000/svg"
   xmlns:sodipodi="http://sodipodi.sourceforge.net/DTD/sodipodi-0.dtd"
   xmlns:inkscape="http://www.inkscape.org/namespaces/inkscape"
   id="svg3039"
   version="1.1"
   inkscape:version="0.48.5 r10040"
   width="160"
   height="160"
   sodipodi:docname="ancora.svg">
  <metadata
     id="metadata3045">
    <rdf:RDF>
      <cc:Work
         rdf:about="">
        <dc:format>image/svg+xml</dc:format>
        <dc:type
           rdf:resource="http://purl.org/dc/dcmitype/StillImage" />
        <dc:title></dc:title>
      </cc:Work>
    </rdf:RDF>
  </metadata>
  <defs
     id="defs3043" />
  <sodipodi:namedview
     pagecolor="#ffffff"
     bordercolor="#666666"
     borderopacity="1"
     objecttolerance="10"
     gridtolerance="10"
     guidetolerance="10"
     inkscape:pageopacity="0"
     inkscape:pageshadow="2"
     inkscape:window-width="1920"
     inkscape:window-height="997"
     id="namedview3041"
     showgrid="false"
     inkscape:zoom="2"
     inkscape:cx="125.71448"
     inkscape:cy="55.744112"
     inkscape:window-x="1366"
     inkscape:window-y="0"
     inkscape:window-maximized="1"
     inkscape:current-layer="svg3039" />
  <path
     style="fill:#000000"
     d=""
     id="path3076"
     inkscape:connector-curvature="0" />
  <path
     inkscape:connector-curvature="0"
     id="path2987"
     d="m 82.386674,141.91074 c -0.393778,-0.70611 -1.685481,-2.60961 -2.419084,-3.5648 -0.936511,-1.21942 -3.571584,-3.89832 -4.808518,-4.88853 -2.409048,-1.92851 -5.462161,-3.73355 -8.360116,-4.94259 -0.404358,-0.1687 -1.502303,-0.51842 -2.439871,-0.77717 -6.717452,-1.85377 -12.361877,-4.28891 -16.956336,-7.31534 -1.457069,-0.95981 -4.005335,-2.87461 -5.488266,-4.12398 -5.570557,-4.69322 -9.137466,-9.80914 -10.602984,-15.20764 l -0.277406,-1.02185 -0.327572,-0.028 c -0.708355,-0.0604 -2.02442,0.30703 -3.185726,0.88944 -0.878954,0.44083 -1.539359,0.90287 -2.46276,1.72307 -0.370661,0.32923 -0.688311,0.58409 -0.705867,0.5664 -0.06433,-0.0648 -0.274161,-1.30539 -0.396081,-2.34149 -0.162964,-1.38487 -0.161462,-3.965305 0.0029,-5.254469 0.848616,-6.650131 4.133816,-12.790128 10.437088,-19.506781 l 0.900884,-0.959974 0.44679,1.300596 c 2.206226,6.422281 5.038689,11.605477 8.877586,16.24527 0.867259,1.048192 2.348232,2.650341 3.141436,3.398469 0.267198,0.251993 0.485832,0.483456 0.485832,0.514337 0,0.03084 -0.408732,0.0029 -0.908275,-0.06296 -0.499557,-0.06539 -1.668698,-0.122356 -2.598103,-0.126211 -1.696933,-0.0071 -3.079075,0.15091 -4.164382,0.476303 l -0.362298,0.10865 0.784755,1.061052 c 3.285214,4.441848 7.06674,7.832968 11.381133,10.206088 1.282068,0.70521 3.384117,1.28479 5.616719,1.54865 1.082119,0.12792 3.766301,0.0504 4.571642,-0.13206 3.102564,-0.7028 5.353524,-2.28936 7.193835,-5.07048 0.637903,-0.96403 1.763139,-3.10232 2.055285,-3.90567 1.338838,-3.68171 2.087223,-10.051029 2.367618,-20.150564 0.04675,-1.686071 0.08592,-4.042728 0.08692,-5.237022 0.001,-1.194305 0.187754,-7.881085 0.414952,-14.859519 0.227212,-6.978448 0.402871,-12.698641 0.390347,-12.711548 -0.01287,-0.01285 -3.596731,-0.102953 -7.964893,-0.200151 l -7.942105,-0.176687 -0.854021,0.64057 c -3.719237,2.789697 -7.629587,3.725356 -11.41676,2.731744 -2.13393,-0.559866 -4.105338,-1.60874 -5.204656,-2.76908 -1.429906,-1.509319 -2.271574,-3.0013 -2.575529,-4.565563 -0.130097,-0.670007 -0.06419,-2.26694 0.122234,-2.960671 0.395537,-1.471346 1.785413,-3.630802 2.756993,-4.283542 1.132513,-0.760868 3.187713,-1.702735 4.558718,-2.089198 1.734832,-0.489017 3.948821,-0.585036 5.594116,-0.242596 2.127153,0.442722 4.17539,1.396408 6.115047,2.84723 l 0.882313,0.659958 8.405664,0 8.405693,0 8.29e-4,-0.447072 c 0.0011,-0.787558 0.160691,-6.030619 0.215574,-7.101459 l 0.05304,-1.034172 -1.085236,-0.547732 c -2.044591,-1.031924 -3.321698,-1.931119 -4.633873,-3.26266 -2.035428,-2.065486 -3.124366,-4.309948 -3.551455,-7.320251 -0.1913,-1.348388 -0.162092,-2.57968 0.0832,-3.501954 0.692072,-2.603498 1.632271,-4.295632 3.331492,-5.995961 1.835407,-1.8366015 3.993712,-2.9965673 6.958245,-3.7396705 3.538688,-0.8870249 6.748374,-0.8862411 10.297928,0.00228 5.628099,1.4091807 9.11126,4.8609131 10.476904,10.3823765 0.280937,1.135843 0.312618,2.060465 0.11966,3.491352 -0.587179,4.354218 -3.079261,7.537427 -7.712649,9.851592 l -1.2885,0.643532 0,2.906011 c 0,1.598307 0.02488,3.562427 0.05518,4.364721 l 0.0549,1.45871 7.908095,-0.04473 7.908091,-0.04462 0.46471,-0.359194 c 4.2563,-3.289965 8.93384,-4.009783 13.72184,-2.111641 1.62156,0.64285 2.14357,0.964276 3.10639,1.912739 1.43417,1.412814 2.28581,2.737499 2.70452,4.206778 0.37911,1.330295 0.21968,2.975202 -0.4279,4.414636 -0.30312,0.673774 -1.03477,1.792329 -1.65639,2.532331 -1.12066,1.334062 -4.03362,2.752575 -6.54915,3.18918 -1.28973,0.223853 -3.33331,0.20444 -4.76872,-0.0453 -1.45025,-0.252326 -2.33046,-0.517864 -3.39618,-1.024502 -1.06662,-0.507079 -1.81071,-0.996381 -2.72142,-1.789535 l -0.68565,-0.597158 -7.363992,0 -7.36396,0 0.05361,3.895842 c 0.02959,2.142701 0.07434,9.73958 0.09936,16.88194 l 0.04575,12.986116 0.463373,8.856091 0.463402,8.8561 0.262209,1.004223 c 0.72075,2.76049 1.894222,4.95808 3.536115,6.62214 1.26351,1.28055 2.592627,2.11494 4.196034,2.63414 1.623239,0.52564 2.703939,0.68218 4.702749,0.68116 2.70266,-0.001 5.36416,-0.46134 8.67531,-1.49926 0.9845,-0.30859 1.40766,-0.49438 2.15453,-0.9459 3.0755,-1.8594 5.60337,-3.93138 7.30103,-5.98443 0.8857,-1.07113 1.34756,-1.747573 1.87986,-2.753313 l 0.39809,-0.75218 -0.48045,-0.21545 c -0.82956,-0.37198 -2.89358,-1.031572 -3.81786,-1.220031 -1.28278,-0.261588 -2.69621,-0.423777 -3.69326,-0.423777 -0.47809,0 -0.86702,-0.0287 -0.86427,-0.06396 0.003,-0.03498 0.48321,-0.408743 1.06775,-0.830265 1.69647,-1.223359 3.07756,-2.420963 4.80276,-4.164613 3.85361,-3.894883 6.81607,-8.166658 9.71123,-14.003394 l 0.81604,-1.645169 0.94719,0.965321 c 4.19585,4.276253 6.49559,9.131264 7.25395,15.313939 0.14239,1.160925 0.14422,6.285621 0.003,7.408471 -0.22307,1.768841 -0.47525,3.408881 -0.5208,3.386861 -0.0264,-0.0129 -0.59939,-0.29888 -1.27319,-0.63576 -0.67382,-0.33687 -1.63023,-0.74742 -2.12535,-0.91227 -0.96628,-0.32176 -2.76985,-0.6996 -2.96997,-0.62222 -0.0688,0.0266 -0.14821,0.22398 -0.18228,0.45293 -0.0332,0.22317 -0.20872,1.01229 -0.39,1.7536 -1.64871,6.74163 -5.13556,12.20611 -10.25881,16.07732 -1.53808,1.16221 -3.27334,2.21091 -5.99897,3.6256 -4.8631,2.52407 -10.01624,4.51212 -17.288265,6.6697 -6.58837,1.95474 -12.20173,6.26986 -15.984456,12.28762 -0.287986,0.45814 -0.545134,0.83336 -0.571425,0.83382 -0.02631,8.6e-4 -0.136244,-0.15772 -0.244282,-0.35148 z M 83.815437,22.403334 c 3.452996,-0.660174 5.240882,-2.64499 5.143095,-5.709603 -0.02659,-0.830491 -0.04117,-0.887626 -0.425002,-1.660517 -0.874435,-1.760622 -2.046235,-2.74859 -3.847532,-3.243931 -0.545434,-0.149996 -0.896352,-0.18059 -2.091726,-0.182374 -1.718264,-0.0023 -2.423016,0.123399 -3.477486,0.62142 -1.886903,0.89118 -2.896182,2.333395 -3.159306,4.514456 -0.113513,0.941391 -0.05333,1.259478 0.430863,2.273375 0.922343,1.931518 2.456669,3.033178 4.719595,3.388671 0.992952,0.156002 1.886302,0.155502 2.707499,-0.0011 z" />
</svg>
