<?xml version="1.0" encoding="UTF-8" standalone="no"?>
<!-- Created with Inkscape (http://www.inkscape.org/) -->

<svg
   xmlns:dc="http://purl.org/dc/elements/1.1/"
   xmlns:cc="http://creativecommons.org/ns#"
   xmlns:rdf="http://www.w3.org/1999/02/22-rdf-syntax-ns#"
   xmlns:svg="http://www.w3.org/2000/svg"
   xmlns="http://www.w3.org/2000/svg"
   xmlns:sodipodi="http://sodipodi.sourceforge.net/DTD/sodipodi-0.dtd"
   xmlns:inkscape="http://www.inkscape.org/namespaces/inkscape"
   id="svg2"
   version="1.1"
   inkscape:version="0.48.5 r10040"
   width="1589"
   height="1837"
   sodipodi:docname="ancora.jpg">
  <metadata
     id="metadata8">
    <rdf:RDF>
      <cc:Work
         rdf:about="">
        <dc:format>image/svg+xml</dc:format>
        <dc:type
           rdf:resource="http://purl.org/dc/dcmitype/StillImage" />
        <dc:title></dc:title>
      </cc:Work>
    </rdf:RDF>
  </metadata>
  <defs
     id="defs6" />
  <sodipodi:namedview
     pagecolor="#ffffff"
     bordercolor="#666666"
     borderopacity="1"
     objecttolerance="10"
     gridtolerance="10"
     guidetolerance="10"
     inkscape:pageopacity="0"
     inkscape:pageshadow="2"
     inkscape:window-width="1920"
     inkscape:window-height="997"
     id="namedview4"
     showgrid="false"
     inkscape:zoom="0.12847033"
     inkscape:cx="810.0678"
     inkscape:cy="922.39195"
     inkscape:window-x="1366"
     inkscape:window-y="0"
     inkscape:window-maximized="1"
     inkscape:current-layer="svg2" />
  <path
     style="fill:param(outline)#ffffff;stroke:param(outline)#ffffff"
     d="m 790.25906,1727.8627 c -4.6605,-8.2922 -19.9487,-30.6456 -28.6312,-41.8627 -11.0844,-14.32 -42.2719,-45.7791 -56.9118,-57.4074 -28.5126,-22.6472 -64.6479,-43.8442 -98.9469,-58.0424 -4.786,-1.9811 -17.7809,-6.0881 -28.8775,-9.1265 -79.505,-21.7696 -146.3102,-50.3662 -200.6883,-85.9066 -17.2454,-11.2712 -47.4058,-33.7575 -64.9571,-48.4291 -65.931,-55.1138 -108.1475,-115.1918 -125.4927,-178.588 l -3.2832,-12 -3.8771,-0.328 c -8.3838,-0.7094 -23.9603,3.6057 -37.705,10.4452 -10.4029,5.1766 -18.2192,10.6026 -29.1483,20.2344 -4.387,3.8661 -8.1464,6.8592 -8.3543,6.6513 -0.7612,-0.7612 -3.2449,-15.3296 -4.687797,-27.4968 -1.9288,-16.263 -1.9111,-46.5659 0.036,-61.7049 10.043897,-78.0947 48.926197,-150.1987 123.529097,-229.07449 l 10.6626,-11.27327 5.288,15.27327 c 26.1121,75.41889 59.636,136.28669 105.0715,190.77329 10.2646,12.3094 27.7929,31.1239 37.181,39.9093 3.1625,2.9594 5.75,5.6774 5.75,6.04 0,0.3625 -4.8375,0.03 -10.75,-0.74 -5.9125,-0.7695 -19.75,-1.4368 -30.75,-1.4828 -20.0844,-0.084 -36.4429,1.7724 -49.2881,5.5935 l -4.288,1.2756 9.288,12.4602 c 38.8826,52.1622 83.6393,91.9851 134.7027,119.8534 15.174,8.2814 40.0531,15.0876 66.4772,18.1863 12.8076,1.5019 44.5765,0.5912 54.1082,-1.5511 36.7208,-8.2533 63.3622,-26.8848 85.1433,-59.5444 7.5499,-11.3208 20.8679,-36.4316 24.3254,-45.8654 15.8463,-43.2356 24.7037,-118.0325 28.0223,-236.6346 0.554,-19.79999 1.0172,-47.47499 1.0293,-61.49999 0.012,-14.02501 2.2222,-92.55001 4.9113,-174.50001 2.6891,-81.95 4.7681,-149.12406 4.6198,-149.27569 -0.1482,-0.15163 -42.5694,-1.20934 -94.2692,-2.35047 l -93.9997,-2.07479 -10.1077,7.52235 c -44.0194,32.76036 -90.3008,43.748 -135.1242,32.07975 -25.2564,-6.57466 -48.5893,-18.89187 -61.6002,-32.51816 -16.924,-17.72447 -26.8855,-35.24527 -30.483,-53.61482 -1.5409,-7.86808 -0.7606,-26.62139 1.4467,-34.76817 4.6814,-17.27851 21.1314,-42.63762 32.6307,-50.30302 13.404,-8.93512 37.7285,-19.99576 53.9552,-24.53409 20.5327,-5.74266 46.7366,-6.87015 66.2097,-2.84884 25.176,5.19903 49.4182,16.39842 72.3752,33.43595 l 10.4427,7.75 99.4862,0 99.4862,0 0.01,-5.25 c 0.018,-9.24861 1.9019,-70.81952 2.5515,-83.39466 l 0.6274,-12.14466 -12.8446,-6.43223 c -24.199,-12.11819 -39.3143,-22.67771 -54.8447,-38.31444 -24.0906,-24.25559 -36.9785,-50.61304 -42.0334,-85.96401 -2.2642,-15.83456 -1.9186,-30.29404 0.9831,-41.1246 8.1911,-30.57361 19.3188,-50.44492 39.4302,-70.41242 21.7232,-21.56783 47.268,-35.18966 82.3551,-43.91617 41.8824,-10.41655 79.871,-10.40733 121.8821,0.0296 66.612,16.54852 107.8373,57.0833 124.0005,121.92362 3.325,13.33854 3.7001,24.1966 1.4163,41 -6.9496,51.13298 -36.4449,88.51444 -91.2839,115.69034 l -15.25,7.55727 0,34.1262 c 0,18.7694 0.2955,41.83471 0.6529,51.25624 l 0.6498,17.13006 93.5971,-0.5245 93.59714,-0.5245 5.5,-4.21814 c 50.3758,-38.63503 105.7374,-47.08813 162.4064,-24.79764 19.1921,7.54916 25.3705,11.32382 36.7659,22.46191 16.9744,16.59115 27.054,32.14729 32.0098,49.4015 4.487,15.62203 2.5999,34.93869 -5.0646,51.84244 -3.5876,7.91234 -12.2471,21.04785 -19.6044,29.73797 -13.2637,15.66636 -47.7405,32.32433 -77.5131,37.45161 -15.2647,2.6288 -39.4518,2.40079 -56.4406,-0.53206 -17.1646,-2.96321 -27.5826,-6.08144 -40.1959,-12.03111 -12.6242,-5.95479 -21.4311,-11.70079 -32.2097,-21.01498 L 1057.2513,622 l -87.15724,0 -87.1571,0 0.6343,45.75 c 0.3489,25.1625 0.8779,114.375 1.1755,198.25 l 0.5413,152.5 5.4845,104 5.4846,104 3.1033,11.7928 c 8.5305,32.4174 22.4194,58.2244 41.8522,77.7659 14.9544,15.0381 30.6851,24.8363 49.6625,30.9337 19.21194,6.1727 32.00274,8.0109 55.65994,7.9989 31.9875,-0.016 63.488,-5.4176 102.6776,-17.6062 11.6521,-3.624 16.6605,-5.8058 25.5,-11.1082 36.4005,-21.8353 66.3192,-46.1674 86.4121,-70.2769 10.483,-12.5786 15.9493,-20.5223 22.2493,-32.3331 l 4.7117,-8.8331 -5.6866,-2.53 c -9.8182,-4.3683 -34.2473,-12.1141 -45.1865,-14.3274 -15.1826,-3.0719 -31.9113,-4.9764 -43.712,-4.9764 -5.6584,0 -10.2615,-0.3375 -10.2292,-0.75 0.032,-0.4125 5.7193,-4.8 12.6375,-9.75 20.0788,-14.3664 36.4248,-28.43 56.8435,-48.9064 45.61,-45.7388 80.6722,-95.9036 114.9383,-164.44629 l 9.6584,-19.3198 11.2105,11.3362 c 49.6604,50.21739 76.8792,107.23119 85.8549,179.83629 1.6854,13.6332 1.7069,73.814 0.031,87 -2.6399,20.772 -5.6247,40.0317 -6.1639,39.773 -0.3129,-0.1501 -7.094,-3.5098 -15.069,-7.466 -7.975,-3.9561 -19.2947,-8.777 -25.1548,-10.7131 -11.4365,-3.7785 -32.7827,-8.2156 -35.1511,-7.3068 -0.8143,0.3125 -1.7545,2.6302 -2.1577,5.3188 -0.393,2.6207 -2.4701,11.8876 -4.6159,20.5931 -19.5134,79.1691 -60.7823,143.3403 -121.4191,188.801 -18.2041,13.6481 -38.7418,25.9637 -71.0014,42.5766 -57.5576,29.6409 -118.5483,52.9872 -204.61714,78.3244 -77.9772,22.9551 -144.4148,73.629 -189.1856,144.2974 -3.4085,5.3801 -6.4519,9.7864 -6.7631,9.7918 -0.3112,0.01 -1.6123,-1.852 -2.8912,-4.1275 z m 16.9103,-1403.41332 c 40.8684,-7.7526 62.029,-31.06091 60.8716,-67.04963 -0.3137,-9.75277 -0.4867,-10.42362 -5.0301,-19.5 -10.3495,-20.67547 -24.2184,-32.27746 -45.5378,-38.09453 -6.4556,-1.76143 -10.6089,-2.1207 -24.757,-2.14154 -20.3365,-0.03 -28.6778,1.44898 -41.1582,7.29748 -22.3324,10.46533 -34.278,27.4018 -37.3922,53.01468 -1.3442,11.05499 -0.6306,14.79046 5.0996,26.697 10.9163,22.68242 29.0761,35.61955 55.8591,39.79424 11.7524,1.83186 22.3257,1.82602 32.045,-0.0177 z"
     id="path2987"
     inkscape:connector-curvature="0" />
</svg>
